# xmcd
#
# Track frame offsets:
#	150
#	14472
#	24330
#	35510
#	47480
#	59530
#	75052
#	86795
#	98090
#	110330
#
# Disc length: 1635 seconds
#
# Revision: 0
# Processed by: cddbd v1.5PL3 Copyright (c) Steve Scherf et al.
# Submitted via: dBpowerAMP V4.0
#
DISCID=6b06610a
DTITLE=Ray Sanders - Country Hits Vol. 1
DYEAR=1900
DGENRE=Country
TTITLE0=Beer Drinking Music
TTITLE1=Blame it on Rosey
TTITLE2=I Do My Swinging at Home
TTITLE3=Out of a Honky Tonk
TTITLE4=I'll Get Over You
TTITLE5=Today I Started Lovin' You Again
TTITLE6=All I Ever Need Is You
TTITLE7=Gypsys, Tramps and Thieves
TTITLE8=A Rose By Any Other Name
TTITLE9=Mountain of Love
EXTD=
EXTT0=
EXTT1=
EXTT2=
EXTT3=
EXTT4=
EXTT5=
EXTT6=
EXTT7=
EXTT8=
EXTT9=
PLAYORDER=
